<svg xmlns="http://www.w3.org/2000/svg" width="32" height="30" fill="none"><path fill="#fff" d="M13.733 5.615c.323-.033.655 0 .968.079.927.232 1.556.8 2.033 1.597.38-.04.764-.017 1.136.07a3.138 3.138 0 0 1 1.907 1.377 2.938 2.938 0 0 1 .355 2.287c-.265 1.003-.902 1.525-1.769 2.025.024.616.015 1.234.017 1.85 0 .39.026.796-.012 1.182a.988.988 0 0 1-.134.44.811.811 0 0 1-.403.134c-.397.048-.828.016-1.228.015l-2.36-.009c-.838.062-1.727.004-2.571.004-.562 0-1.195.067-1.75.004-.197-.022-.282-.153-.39-.298-.07-1.105-.01-2.247-.01-3.356-.462-.236-.856-.526-1.177-.933a2.897 2.897 0 0 1-.6-2.166 3.117 3.117 0 0 1 1.226-2.041 3.023 3.023 0 0 1 2.248-.573c.113-.196.225-.392.365-.57.54-.689 1.293-1.01 2.15-1.118Zm.046 1.357c-.527.104-.98.292-1.298.747-.178.255-.34.988-.562 1.1-.293.034-.6-.1-.884-.162-.571-.124-1.216.102-1.57.56-.29.378-.428.898-.35 1.366.07.423.33.778.684 1.02.387.266.818.318 1.085.734.05.963.014 1.943.015 2.908 1.124-.009 2.248-.011 3.372-.007l2.746-.006c0-.49-.106-2.922.122-3.16.108-.113.354-.181.499-.238.654-.254 1.132-.695 1.192-1.42.04-.48-.117-.91-.439-1.267a1.584 1.584 0 0 0-1.117-.524c-.387-.023-1.184.343-1.427.07-.118-.132-.165-.359-.226-.525-.247-.685-.765-1.082-1.493-1.177a2.328 2.328 0 0 0-.35-.019ZM26.702 1.373c.243-.018.536-.014.728.16.179.164.187.426.128.644-.145.528-.608 1.16-.887 1.64-.446.769-.863 1.558-1.296 2.335-.268.48-.592.972-.806 1.475-.069.16-.12.327-.113.503.007.152.06.266.178.366.166.142.385.252.61.222.15-.02.27-.098.363-.213.318-.395.506-.945.739-1.392l1.6-3.089c.19-.369.356-.822.622-1.141.14-.17.27-.25.495-.268.177-.015.35.03.487.145a.618.618 0 0 1 .205.563c-.061.396-.415.878-.603 1.24l-1.453 2.849c-.26.514-.563 1.039-.772 1.574-.049.125-.097.264-.079.4.021.158.139.297.267.386.143.1.338.167.515.129.203-.045.344-.191.458-.354.258-.37.43-.856.62-1.265l1.24-2.63c.234-.498.447-1.084.758-1.538.113-.163.233-.293.44-.325.208-.031.42.056.578.187.13.109.229.237.235.41.015.448-.805 2-1.029 2.498l-.879 1.965c-.431.968-.8 1.94-1.527 2.741-.717.79-1.532 1.124-2.516 1.476-.208.075-.526.148-.702.273-.348.25-.59.709-.795 1.072-.156.278-.356.581-.455.886-.144.449-.048 1.821-.048 2.363l-.002 6.996.004 2.139c0 .419.026.857-.02 1.273a.725.725 0 0 1-.191.432c-.341.33-1.596.214-2.078.211l-3.286-.004c.19-.502.424-.996.67-1.473.427-.045.865-.026 1.294-.026l2.119.001v-9.142c-.274.65-.624 1.285-.94 1.918a348.476 348.476 0 0 0-1.667 3.367 299.196 299.196 0 0 1-2.023 4.092c-.287.568-.541 1.166-.866 1.713a1.65 1.65 0 0 1-.513.564c-.3.192-.664.26-1.015.19a1.275 1.275 0 0 1-.825-.577 1.184 1.184 0 0 1-.135-.992c.17-.561.525-1.103.806-1.617l1.335-2.445c1.618-2.962 3.25-5.922 4.815-8.912.369-.704 1.204-2.04 1.405-2.704.22-.722-.24-1.587-.375-2.297a4.2 4.2 0 0 1 .35-2.665c.213-.421.47-.824.709-1.232l1.234-2.13.996-1.727c.196-.34.383-.707.621-1.02a.858.858 0 0 1 .272-.22Z"/><path fill="#fff" d="M4.303.093C5.446.033 6.613.084 7.76.085l6.564.003L20.28.085c.966 0 1.97-.055 2.933.006.197.012.42.067.57.203.13.119.186.328.212.495.05.339.02.71.02 1.053l-.009 1.947c-.477.766-.999 1.511-1.5 2.263.045-.504.014-1.029.014-1.536V1.663c-5.711.005-11.43.057-17.14-.003-.058 2.336-.005 4.687-.005 7.025l.003 12.921 7.698-.003 2.383-.005c.441 0 .91-.031 1.348.024-.163.503-.471 1.008-.711 1.482l-7.934-.017-2.39-.002c-.544.002-1.11-.024-1.65.055a2.598 2.598 0 0 0-1.265.546c-.444.355-.768.868-.814 1.438-.04.501.158.985.484 1.364.306.355.777.624 1.24.711.68.128 1.687.037 2.402.04l4.854.004c.903 0 1.822-.037 2.722.028-.16.467-.306.973-.397 1.457-.814-.072-1.68-.013-2.502-.013l-4.861-.001c-.846.002-1.81.099-2.635-.078-.58-.124-1.124-.426-1.577-.798-.731-.6-1.191-1.526-1.266-2.456-.042-.52-.011-1.06-.01-1.581l.002-2.533v-8.76L.496 6.434c0-.781-.074-2.155.033-2.892.1-.732.413-1.419.903-1.977A4.25 4.25 0 0 1 4.303.093Zm-.452 1.634c-.804.326-1.394.735-1.737 1.55-.118.282-.15.629-.16.932-.05 1.487-.003 2.991-.002 4.48v8.593l.001 3.81c0 .432-.08 1.02.015 1.432l.035.012.053-.035c.606-.448 1.12-.693 1.865-.848-.059-2.124-.008-4.264-.005-6.389.002-2.388-.04-4.781-.012-7.17a296.4 296.4 0 0 0 .01-4.687c0-.376.062-1.356-.012-1.665l-.05-.015Z"/></svg>